<?xml version="1.0" encoding="utf-8"?>
<!-- Generator: Adobe Illustrator 24.0.1, SVG Export Plug-In . SVG Version: 6.00 Build 0)  -->
<svg version="1.1" id="Calque_1" xmlns="http://www.w3.org/2000/svg" xmlns:xlink="http://www.w3.org/1999/xlink" x="0px" y="0px"
	 viewBox="0 0 24 24" style="enable-background:new 0 0 24 24;" xml:space="preserve">
<style type="text/css">
	.st0{opacity:0.9;}
</style>
<title>max</title>
<g id="alti_max" class="st0">
	<path d="M4.9,8.2L3.4,3.4l0,0c0.1,1,0.1,1.6,0.1,2v2.8H2.3V2.1h1.8l1.5,4.7l0,0l1.6-4.7h1.8v6.1H7.7V4.8c0-0.2,0-0.7,0.1-1.4l0,0
		L6.1,8.2H4.9z"/>
	<path d="M14.4,8.2l-0.4-1.4h-2.2l-0.4,1.4H9.8L12,2.1h1.6l2.2,6.1L14.4,8.2z M13.6,5.7l-0.7-2.2c-0.1-0.2-0.1-0.3-0.1-0.4
		c-0.1,0.3-0.4,1.2-0.8,2.6H13.6z"/>
	<path d="M21.7,8.2h-1.5l-1.4-2.3l-1.4,2.3H16L18,5l-1.9-3h1.4l1.3,2.2L20.1,2h1.4l-1.9,3L21.7,8.2z"/>
</g>
<g id="Calque_2_1_">
	<path d="M20.3,22.1H3.7c-0.8,0-1.6-0.5-1.9-1.2c-0.3-0.7-0.1-1.6,0.5-2.1l8.3-7.9c0.8-0.8,2.1-0.8,2.9,0l8.3,7.9
		c0.6,0.5,0.8,1.4,0.5,2.1C21.9,21.7,21.1,22.1,20.3,22.1z"/>
</g>
</svg>
