<svg id="Calque_1" data-name="Calque 1" xmlns="http://www.w3.org/2000/svg" viewBox="0 0 24 24"><defs><style>.cls-1,.cls-4{fill:none;stroke:#010101;stroke-miterlimit:10;}.cls-1{stroke-width:1.25px;}.cls-1,.cls-2{fill-rule:evenodd;}.cls-2,.cls-3{fill:#010101;}</style></defs><title>ic_dh</title><g id="Calque_3" data-name="Calque 3"><polyline class="cls-1" points="2.92 13.15 9.35 15.37 10.18 18.64 13.76 19.07 16.48 21.99"/><path class="cls-2" d="M19.63,1.34a2.17,2.17,0,0,0-1.78,2s0,0,0,0a16,16,0,0,0,.88,1.57h0c.33.48.52,1.07.84,1.49a.06.06,0,0,0,.06,0c.47,0,1.21-.26,1-.89l0,0c-.58-.44-.58-.11-1-1.23a.13.13,0,0,1,0-.06,1.42,1.42,0,0,1,.52-.54s0,0,.05,0c.5.15.59.61,1,.79h.05a.89.89,0,0,0,.26-.09.06.06,0,0,1,.07,0,4.5,4.5,0,0,0,.51.37h.05l.16,0a.07.07,0,0,0,0,0,.41.41,0,0,0-.09-.39h0c-1-1,.34-1.62-2.23-2.88"/><path class="cls-3" d="M14,7.63l.68,2-2.41,4.15-1.38-.81,2-3.45-1-2.66a1.57,1.57,0,0,1-.15-.68,1.64,1.64,0,0,1,.15-.68,1.62,1.62,0,0,1,.42-.55,1.6,1.6,0,0,1,.62-.32L16,3.78a1.45,1.45,0,0,1,.62,0,1.53,1.53,0,0,1,.59.2,1.7,1.7,0,0,1,.47.41,1.73,1.73,0,0,1,.28.56l.4,1.55A5.61,5.61,0,0,0,20.3,9.4l-.82,1.39a7.14,7.14,0,0,1-2.64-3.92Z"/><circle class="cls-4" cx="7.8" cy="9.75" r="3.05"/><circle class="cls-4" cx="16.65" cy="14.98" r="3.05"/></g></svg>