<?xml version="1.0" encoding="utf-8"?>
<!-- Generator: Adobe Illustrator 24.0.1, SVG Export Plug-In . SVG Version: 6.00 Build 0)  -->
<svg version="1.1" id="Calque_1" xmlns="http://www.w3.org/2000/svg" xmlns:xlink="http://www.w3.org/1999/xlink" x="0px" y="0px"
	 viewBox="0 0 24 24" style="enable-background:new 0 0 24 24;" xml:space="preserve">
<style type="text/css">
	.st0{fill:none;stroke:#000000;stroke-width:2;stroke-linecap:round;}
	.st1{fill:none;stroke:#000000;stroke-width:2.36;stroke-linecap:round;}
</style>
<g id="Regle">
	<line class="st0" x1="6" y1="16.6" x2="6" y2="13"/>
	<line class="st0" x1="10" y1="16.6" x2="10" y2="13"/>
	<line class="st0" x1="14" y1="16.6" x2="14" y2="13"/>
	<line class="st0" x1="17.9" y1="16.6" x2="17.9" y2="13"/>
	<path d="M21.4,22.2H2.6c-1.3,0-2.4-1-2.5-2.3V14c0-1.3,1.1-2.4,2.5-2.3c0,0,0,0,0,0h18.9c1.3,0,2.4,1,2.5,2.3v6
		C23.9,21.3,22.8,22.4,21.4,22.2C21.4,22.3,21.4,22.3,21.4,22.2L21.4,22.2z M3.1,14.3c-0.2,0-0.3,0.1-0.3,0.3c0,0,0,0,0,0v4.6
		c0,0.2,0.2,0.3,0.3,0.3c0,0,0,0,0,0h17.8c0.2,0,0.3-0.1,0.3-0.3c0,0,0,0,0,0v-4.6c0-0.2-0.2-0.3-0.3-0.3c0,0,0,0,0,0L3.1,14.3z"/>
	<line class="st1" x1="7" y1="5.7" x2="16.9" y2="5.7"/>
	<polygon points="16,8.8 21.4,5.7 16,2.6 	"/>
	<polygon points="7.9,2.6 2.5,5.7 7.9,8.8 	"/>
	<line class="st0" x1="2.1" y1="9.7" x2="2.1" y2="1.8"/>
	<line class="st0" x1="21.9" y1="9.7" x2="21.9" y2="1.8"/>
</g>
</svg>
