<?xml version="1.0" encoding="utf-8"?>
<!-- Generator: Adobe Illustrator 24.0.1, SVG Export Plug-In . SVG Version: 6.00 Build 0)  -->
<svg version="1.1" id="Calque_1" xmlns="http://www.w3.org/2000/svg" xmlns:xlink="http://www.w3.org/1999/xlink" x="0px" y="0px"
	 viewBox="0 0 24 24" style="enable-background:new 0 0 24 24;" xml:space="preserve">
<style type="text/css">
	.st0{opacity:0.9;}
	.st1{fill:none;stroke:#000000;stroke-width:2;stroke-linecap:round;stroke-linejoin:round;}
	.st2{fill:none;stroke:#000000;}
</style>
<g id="Chrono" class="st0">
	<path class="st1" d="M18.8,13.8c0,3.7-3,6.8-6.8,6.8s-6.8-3-6.8-6.8s3-6.8,6.8-6.8C15.7,7.1,18.8,10.1,18.8,13.8L18.8,13.8z"/>
	<line class="st1" x1="12" y1="3.5" x2="12" y2="6.4"/>
	<line class="st1" x1="13.2" y1="3.4" x2="10.8" y2="3.4"/>
	<line class="st1" x1="5.4" y1="6.1" x2="7.3" y2="8.3"/>
	<line class="st1" x1="6.2" y1="5.1" x2="4.4" y2="6.7"/>
	<line class="st1" x1="12" y1="13.8" x2="14.6" y2="11.7"/>
</g>
<g id="Chrono_VAE">
	<path class="st2" d="M21.2,1.2c-0.1,0-0.2,0-0.3,0.1l-4.7,4.4c-0.1,0.1-0.1,0.4,0,0.5c0.1,0.1,0.1,0.1,0.2,0.1l2.1,0.5l-2,3.2
		c-0.1,0.2-0.1,0.4,0.1,0.5c0.1,0.1,0.3,0.1,0.4,0l4.8-4.3C22,6,22,5.8,21.9,5.6c0,0,0,0,0,0c0-0.1-0.1-0.1-0.2-0.1L19.5,5l1.9-3.2
		C21.5,1.6,21.5,1.4,21.2,1.2L21.2,1.2z"/>
</g>
</svg>
