<svg id="Calque_1" data-name="Calque 1" xmlns="http://www.w3.org/2000/svg" viewBox="0 0 24 24"><defs><style>.cls-1,.cls-2,.cls-4{fill:none;}.cls-1{stroke:#000;}.cls-2,.cls-4{stroke:#010101;stroke-miterlimit:10;}.cls-2{stroke-width:1.25px;fill-rule:evenodd;}.cls-3{fill:#010101;}</style></defs><title>Sans titre - 2</title><g id="Chrono_VAE" data-name="Chrono VAE"><path class="cls-1" d="M21.67.58a.35.35,0,0,0-.28.07l-4.18,3.9a.33.33,0,0,0,0,.46.34.34,0,0,0,.17.11l1.88.45L17.47,8.39a.32.32,0,0,0,.48.43l4.29-3.88a.33.33,0,0,0,0-.46.33.33,0,0,0-.17-.1l-1.9-.46,1.68-2.86a.32.32,0,0,0-.12-.44Z"/><polyline class="cls-2" points="4.5 23.11 10.38 19.46 13.49 20.89 16.61 19.59 21.25 16.64"/><path class="cls-3" d="M8.88,10.62l1.92.9,1.28,4.71-1.57.43L9.44,12.74l-2.62-1.2a1.77,1.77,0,0,1-.6-.37,1.58,1.58,0,0,1-.38-.6,1.51,1.51,0,0,1-.1-.7A1.55,1.55,0,0,1,6,9.2L7.56,6.38A1.62,1.62,0,0,1,8,5.9a1.71,1.71,0,0,1,.57-.29,1.67,1.67,0,0,1,.63,0,1.77,1.77,0,0,1,.6.2l1.41.81a5.63,5.63,0,0,0,3.5.71l.42,1.58A7.26,7.26,0,0,1,10.39,8Z"/><circle class="cls-4" cx="6.03" cy="16.6" r="3.1"/><circle class="cls-4" cx="16.13" cy="13.92" r="3.1"/><circle class="cls-3" cx="11.24" cy="3.81" r="1.62"/></g></svg>