<svg id="Calque_1" data-name="Calque 1" xmlns="http://www.w3.org/2000/svg" viewBox="0 0 24 24"><defs><style>.cls-1,.cls-3{fill:none;stroke:#010101;stroke-miterlimit:10;}.cls-1{stroke-width:1.25px;fill-rule:evenodd;}.cls-2{fill:#010101;}</style></defs><title>ic_enduro</title><g id="Calque_4" data-name="Calque 4"><polyline class="cls-1" points="2.57 14.35 9.34 15.43 10.74 18.53 13.93 19.58 19.32 20.39"/><path class="cls-2" d="M13.94,7.71l.85,1.92L12.71,14l-1.45-.69L13,9.67,11.8,7.08a1.64,1.64,0,0,1-.21-.67,1.51,1.51,0,0,1,.09-.7,1.62,1.62,0,0,1,.38-.59,1.59,1.59,0,0,1,.59-.37l3-1.08a1.66,1.66,0,0,1,1.24.06,1.7,1.7,0,0,1,.5.38,1.64,1.64,0,0,1,.32.54l.54,1.52A5.62,5.62,0,0,0,20.46,9l-.71,1.46a7.3,7.3,0,0,1-3-3.72Z"/><circle class="cls-3" cx="7.92" cy="10.36" r="3.08"/><circle class="cls-3" cx="17.26" cy="14.88" r="3.08"/><circle class="cls-2" cx="20.11" cy="4.12" r="1.61"/></g></svg>