<?xml version="1.0" encoding="utf-8"?>
<!-- Generator: Adobe Illustrator 24.0.1, SVG Export Plug-In . SVG Version: 6.00 Build 0)  -->
<svg version="1.1" id="Calque_1" xmlns="http://www.w3.org/2000/svg" xmlns:xlink="http://www.w3.org/1999/xlink" x="0px" y="0px"
	 viewBox="0 0 24 24" style="enable-background:new 0 0 24 24;" xml:space="preserve">
<style type="text/css">
	.st0{fill:none;stroke:#000000;stroke-width:3.13;stroke-linecap:round;}
</style>
<title>loop</title>
<path class="st0" d="M9.6,21.8c-2.2-0.2-4.3-1.4-5.6-3.1C2.1,16.4,0.8,11,4.7,9.9c3.4-0.9,3.2-4,4.1-6.1c1.4-3.2,5.9-2.3,8.9,0
	s5.3,5,3.6,8.4s-0.1,5.2-3.6,6.9"/>
<polygon points="17.1,15 12.6,21.3 20.3,22.1 "/>
<path d="M9.6,19.7c-1.2,0-2.1,0.9-2.1,2.1c0,1.2,0.9,2.1,2.1,2.1s2.1-0.9,2.1-2.1c0,0,0,0,0,0C11.7,20.7,10.8,19.7,9.6,19.7
	C9.6,19.7,9.6,19.7,9.6,19.7z"/>
</svg>
