<svg id="Calque_1" data-name="Calque 1" xmlns="http://www.w3.org/2000/svg" viewBox="0 0 24 24"><defs><style>.cls-1,.cls-3{fill:none;stroke:#010101;stroke-miterlimit:10;}.cls-1{stroke-width:1.25px;fill-rule:evenodd;}.cls-2{fill:#010101;}</style></defs><title>ic_xc</title><g id="Calque_5" data-name="Calque 5"><polyline class="cls-1" points="5.5 22.1 11.38 18.46 14.49 19.89 17.61 18.59 22.25 15.64"/><path class="cls-2" d="M9.88,9.62l1.92.9,1.28,4.71-1.57.43-1.07-3.93L7.83,10.54a1.69,1.69,0,0,1-.61-.38,1.47,1.47,0,0,1-.38-.59,1.66,1.66,0,0,1-.1-.7A1.55,1.55,0,0,1,7,8.2L8.56,5.37A1.71,1.71,0,0,1,9,4.9a1.54,1.54,0,0,1,.57-.29,1.68,1.68,0,0,1,.63,0,1.58,1.58,0,0,1,.6.2l1.41.81a5.77,5.77,0,0,0,3.5.71l.42,1.58A7.26,7.26,0,0,1,11.39,7Z"/><circle class="cls-3" cx="7.03" cy="15.6" r="3.1"/><circle class="cls-3" cx="17.13" cy="12.92" r="3.1"/><circle class="cls-2" cx="12.24" cy="2.81" r="1.62"/></g></svg>