<?xml version="1.0" encoding="utf-8"?>
<!-- Generator: Adobe Illustrator 24.0.1, SVG Export Plug-In . SVG Version: 6.00 Build 0)  -->
<svg version="1.1" id="Calque_1" xmlns="http://www.w3.org/2000/svg" xmlns:xlink="http://www.w3.org/1999/xlink" x="0px" y="0px"
	 viewBox="0 0 48 48" style="enable-background:new 0 0 48 48;" xml:space="preserve">
<style type="text/css">
	.st0{fill:none;stroke:#F6F6F6;stroke-width:2.8;stroke-linecap:round;stroke-linejoin:round;}
	.st1{fill:none;stroke:#F6F6F6;stroke-width:4;stroke-linecap:round;stroke-linejoin:round;}
	.st2{fill:none;stroke:#F6F6F6;stroke-width:3;stroke-linecap:round;stroke-linejoin:round;}
</style>
<g>
	<g id="Calque_1_1_">
		<path class="st0" d="M25.7,4.9c0.7,0.5,1.6,1.1,1.6,2.2c0,2.1-0.1,3,0,3.3s2.4,1.2,2.4,3.4v2.8c0,0.9,0.9,0.4,2.1,0.4
			c2.5,0,6.7-0.1,8.9,0.2c1.1,0.2,2.2,0.6,3.1,1.1"/>
		<path class="st1" d="M24.3,15.4v6.9c0,0,10.1-0.3,10.1,7.9c0,5.7-3.1,4.5-4.5,6.9c-1.5,2.4-0.1,5-5.6,5h-0.6"/>
		<path class="st1" d="M24.1,15.4v6.9c0,0-10.5-0.1-10.5,8c0,5.7,3.1,4.4,4.5,6.8c1.5,2.4,0.1,5,5.6,5"/>
		<path class="st2" d="M43.2,14.5c0-0.4,0-0.8-0.2-1.2c-0.6-0.7-1.2-1.4-1.6-2.2c-0.2-1-0.2-2-0.2-3c0-0.7-0.7-2.1-3.1-2.1
			c-2.4,0-2.6,1.7-2.6,2v3.5c0,0-1.3,1.3-1.3,1.5v7"/>
		<path class="st2" d="M29.9,23.4c2-2.1,2-2.5,4.6-2.5c2.8,0,5.7-0.1,7,0.7c1.7,1,2.8,1.7,2.7,3.5c-0.2,1.8-0.1,2.5,0.3,3.1
			c0.4,0.5,1.6,2.1,1.6,3.1c0,1.3-0.9,4.4-2.6,4.4h-5.8l-0.3,0.3"/>
	</g>
	<g id="Calque_2_1_">
		<path class="st0" d="M4.1,18.3c1-0.5,2-0.9,3.1-1.1c2.2-0.3,6.5-0.2,8.9-0.2c1.2,0,2.1,0.5,2.1-0.4v-2.8c0-2.2,2.3-3.1,2.4-3.4
			c0.1-0.3,0-1.2,0-3.3c0-1.1,0.9-1.7,1.6-2.2"/>
		<path class="st1" d="M24.3,42.3h-0.6c-5.5,0-4.1-2.6-5.6-5c-1.5-2.4-4.6-1.2-4.5-6.9c0-8.2,10.1-7.9,10.1-7.9v-7"/>
		<path class="st2" d="M13.8,19.9v-7c0-0.3-1.3-1.5-1.3-1.5V7.8c0-0.3-0.1-2-2.6-2S6.7,7.2,6.7,7.9c0.1,1,0,2-0.2,3
			c-0.4,0.8-0.9,1.6-1.5,2.2c-0.1,0.4-0.2,0.8-0.2,1.2"/>
		<path class="st2" d="M10.7,36.2l-0.3-0.3H4.6c-1.7,0-2.6-3.1-2.6-4.4c0-1,1.2-2.6,1.6-3.1s0.4-1.2,0.3-3.1c-0.2-1.9,1-2.5,2.6-3.5
			c1.3-0.8,4.2-0.7,7-0.7c2.5,0,2.6,0.4,4.6,2.5"/>
	</g>
</g>
</svg>
