<?xml version="1.0" encoding="UTF-8"?>
<svg version="1.1" x="0px" y="0px" width="30px" height="30px" viewBox="0 0 30 30" xmlns="http://www.w3.org/2000/svg">
 <g fill="#fff" stroke="#db3714" stroke-linecap="round">
  <path d="m11.5 12.5s-2-3.7561-2-6.2 2.1471-4.8 5.5-4.8c3.3529 0 5.5 2.6921 5.5 4.8 0 0.70529-0.15449 1.1972-0.15449 1.1972m-8.8047 10.059s-4.1903 0.74141-6.5146-0.01379c-2.3243-0.7552-3.9016-3.5253-2.8655-6.7141 1.0361-3.1888 4.26-4.3989 6.2647-3.7475 0.67077 0.21795 1.0908 0.51687 1.0908 0.51687m6.8459 11.482s-0.58976 4.2143-2.0262 6.1915c-1.4365 1.9771-4.5584 2.6212-7.271 0.65046-2.7126-1.9708-2.8672-5.4108-1.6282-7.1161 0.41456-0.57059 0.82866-0.87773 0.82866-0.87773m13.036-2.9626s3.8258 1.8632 5.2623 3.8403 1.0843 5.1453-1.6282 7.1161-6.032 1.0548-7.271-0.65046c-0.41456-0.57059-0.5787-1.0593-0.5787-1.0593m1.2106-13.313s2.9543-3.0628 5.2785-3.818c2.3243-0.7552 5.2286 0.55873 6.2647 3.7475 1.0361 3.1888-0.86077 6.0627-2.8655 6.7141-0.67077 0.21795-1.1863 0.22302-1.1863 0.22302" stroke-width="3"/>
  <ellipse cx="15" cy="15" rx="4.0756" ry="4.0756" stroke-width="2"/>
 </g>
</svg>
