<svg id="Calque_1" data-name="Calque 1" xmlns="http://www.w3.org/2000/svg" xmlns:xlink="http://www.w3.org/1999/xlink" viewBox="0 0 32 32"><defs><style>.cls-1{fill:url(#Dégradé_sans_nom);}.cls-2{fill:#fff;}.cls-3,.cls-4,.cls-6{fill:none;stroke:#000;}.cls-3{stroke-width:1.5px;}.cls-4,.cls-6{stroke-miterlimit:10;}.cls-4{stroke-width:1.25px;}.cls-4,.cls-5{fill-rule:evenodd;}</style><radialGradient id="Dégradé_sans_nom" cx="3.71" cy="27.71" r="1" gradientTransform="matrix(0, 14, 14, 0, -372, -34)" gradientUnits="userSpaceOnUse"><stop offset="0.79" stop-opacity="0.16"/><stop offset="1" stop-opacity="0"/></radialGradient></defs><title>pin_dh</title><path class="cls-1" d="M16,32A14,14,0,1,0,2,18,14,14,0,0,0,16,32Z"/><path class="cls-2" d="M28,16A12,12,0,1,0,16,28,12,12,0,0,0,28,16Z"/><path class="cls-3" d="M28,16A12,12,0,1,0,16,28,12,12,0,0,0,28,16Z"/><g id="DH"><polyline class="cls-4" points="6.67 18.2 12.25 20.13 12.98 22.97 16.08 23.34 18.45 25.88"/><path class="cls-5" d="M21.18,7.94a1.89,1.89,0,0,0-1.54,1.74v0c.16.46.54.87.77,1.36h0c.29.41.46.93.73,1.29a.05.05,0,0,0,.05,0c.42,0,1.05-.22.88-.78l0,0c-.51-.38-.51-.1-.9-1.07a.11.11,0,0,1,0,0,1.27,1.27,0,0,1,.45-.47h0c.44.13.52.53.87.69h0a.65.65,0,0,0,.23-.09h.06a3.84,3.84,0,0,0,.44.32h.05l.14,0,0,0a.42.42,0,0,0-.08-.35h0c-.89-.83.29-1.4-1.94-2.49"/><g id="Calque_7" data-name="Calque 7"><path d="M16.26,13.4l.59,1.71-2.09,3.6-1.2-.7,1.74-3-.84-2.31a1.45,1.45,0,0,1-.13-.59,1.37,1.37,0,0,1,.13-.59,1.44,1.44,0,0,1,.37-.48,1.38,1.38,0,0,1,.54-.27l2.68-.71a1.41,1.41,0,0,1,.54,0,1.48,1.48,0,0,1,.51.18,1.29,1.29,0,0,1,.41.36,1.44,1.44,0,0,1,.24.48l.35,1.35a4.88,4.88,0,0,0,1.66,2.55l-.71,1.21a6.32,6.32,0,0,1-2.29-3.41Z"/><circle class="cls-6" cx="10.91" cy="15.25" r="2.65"/><circle class="cls-6" cx="18.59" cy="19.79" r="2.65"/></g></g></svg>