<svg id="Calque_1" data-name="Calque 1" xmlns="http://www.w3.org/2000/svg" xmlns:xlink="http://www.w3.org/1999/xlink" width="32" height="32" viewBox="0 0 32 32"><defs><style>.cls-1{fill:url(#Dégradé_sans_nom);}.cls-2{fill:#fff;}.cls-3,.cls-4,.cls-5{fill:none;stroke:#000;}.cls-3{stroke-width:1.5px;}.cls-4,.cls-5{stroke-miterlimit:10;}.cls-4{stroke-width:1.25px;fill-rule:evenodd;}</style><radialGradient id="Dégradé_sans_nom" cx="3.71" cy="27.71" r="1" gradientTransform="matrix(0, 14, 14, 0, -372, -34)" gradientUnits="userSpaceOnUse"><stop offset="0.79" stop-opacity="0.16"/><stop offset="1" stop-opacity="0"/></radialGradient></defs><title>pin_gravel_iddle</title><path class="cls-1" d="M16,32A14,14,0,1,0,2,18,14,14,0,0,0,16,32Z"/><path class="cls-2" d="M28,16A12,12,0,1,0,16,28,12,12,0,0,0,28,16Z"/><path class="cls-3" d="M28,16A12,12,0,1,0,16,28,12,12,0,0,0,28,16Z"/><g id="XC"><polyline class="cls-4" points="10.6 24.9 15.62 21.79 18.28 23.01 20.95 21.9 24.91 19.38"/><g id="Calque_5" data-name="Calque 5"><path d="M14.35,14.23,16,15l1.1,4-1.34.36L14.82,16l-2.23-1a1.41,1.41,0,0,1-.52-.32,1.56,1.56,0,0,1-.33-.5,1.53,1.53,0,0,1-.08-.6,1.46,1.46,0,0,1,.18-.58l1.38-2.41a1.29,1.29,0,0,1,.36-.41,1.35,1.35,0,0,1,.48-.24,1.41,1.41,0,0,1,.54,0,1.38,1.38,0,0,1,.52.17l1.2.69a4.86,4.86,0,0,0,3,.61l.36,1.35a6.18,6.18,0,0,1-4-.75Z"/><circle class="cls-5" cx="11.91" cy="19.34" r="2.65"/><circle class="cls-5" cx="20.54" cy="17.05" r="2.65"/><circle cx="16.36" cy="8.42" r="1.39"/></g></g></svg>