<svg id="Calque_1" data-name="Calque 1" xmlns="http://www.w3.org/2000/svg" xmlns:xlink="http://www.w3.org/1999/xlink" viewBox="0 0 32 32"><defs><style>.cls-1{fill:url(#Dégradé_sans_nom);}.cls-2{fill:#fff;}.cls-3,.cls-4,.cls-5{fill:none;stroke:#000;}.cls-3{stroke-width:1.5px;}.cls-4,.cls-5{stroke-miterlimit:10;}.cls-4{stroke-width:1.25px;fill-rule:evenodd;}</style><radialGradient id="Dégradé_sans_nom" cx="3.71" cy="27.71" r="1" gradientTransform="matrix(0, 14, 14, 0, -372, -34)" gradientUnits="userSpaceOnUse"><stop offset="0.79" stop-opacity="0.16"/><stop offset="1" stop-opacity="0"/></radialGradient></defs><title>pin_gravel_iddle</title><path class="cls-1" d="M16,32A14,14,0,1,0,2,18,14,14,0,0,0,16,32Z"/><path class="cls-2" d="M28,16A12,12,0,1,0,16,28,12,12,0,0,0,28,16Z"/><path class="cls-3" d="M28,16A12,12,0,1,0,16,28,12,12,0,0,0,28,16Z"/><g id="Enduro"><polyline class="cls-4" points="6.25 18.61 12.09 19.55 13.29 22.22 16.04 23.12 20.68 23.82"/><g id="Calque_6" data-name="Calque 6"><path d="M16.05,12.9l.73,1.66L15,18.32l-1.26-.6,1.5-3.13-1-2.24a1.27,1.27,0,0,1-.18-.57,1.35,1.35,0,0,1,.08-.6,1.42,1.42,0,0,1,.32-.51,1.46,1.46,0,0,1,.52-.32l2.61-.93a1.36,1.36,0,0,1,1.07.06,1.21,1.21,0,0,1,.43.32,1.36,1.36,0,0,1,.28.46l.46,1.31A4.81,4.81,0,0,0,21.66,14l-.61,1.26A6.21,6.21,0,0,1,18.48,12Z"/><circle class="cls-5" cx="10.86" cy="15.18" r="2.65"/><circle class="cls-5" cx="18.9" cy="19.08" r="2.65"/><circle cx="21.36" cy="9.81" r="1.39"/></g></g></svg>